<svg aria-hidden="true" focusable="false" viewBox="0 -3 30 30" xmlns="http://www.w3.org/2000/svg">
  <g fill="none" stroke="#5c5c5c" stroke-linecap="round" stroke-linejoin="round" stroke-width=".855">
    <path d="M16.428 12.887h8.166a.486.486 0 00.485-.485v-1.654c0-.233.047-.608-.586-.608l-16.545.004a.48.48 0 00-.486.48v1.906a.357.357 0 00.356.357h3.042m11.29-2.747h2.482a.445.445 0 00.445-.445V7.698a.445.445 0 00-.445-.445H7.907a.445.445 0 00-.446.445v1.997a.445.445 0 00.446.445h15.209"></path>
    <path d="M23.02 3.243l2.03 3.645a.25.25 0 01-.223.365l-17.114.034a.25.25 0 01-.22-.365l2.03-3.68a.25.25 0 01.22-.135h13.052a.25.25 0 01.225.136zm-9.297 10.124c2.173-.02 2.871-.204 2.77-.864-.08-.514-.666-.538-1.186-.492-.52.045-2.873 0-3.393 0-.52 0-1.22 1.085-1.402 1.424 0 0-2.057 3.897-2.556 4.55m2.374 2.145c.379-.55 1.971-2.94 2.6-4.397.145-.335.474-.552.832-.628l2.084-.441c1.12-.207 3.078-.584 3.078-.584.7-.13 1.072-.21 1.087-1.104"></path>
    <path d="M6.751 16.584s2.66-2.712 2.8-3.48"></path>
    <path d="M16.11 6.434l-1.994-.708 3.036-1.773 1.993.707zm-.369-1.63l1.78.63M7.46 7.105v5.614M25.077 7.04v5.405"></path>
  </g>
</svg>